<svg xmlns="http://www.w3.org/2000/svg" width="151" height="100" viewBox="0 0 151 100">
    <g fill="none" fill-rule="evenodd">
        <path fill="#CC2229" d="M33.051 99.218L99.3 66.836 66.916.586.667 32.97z"/>
        <path fill="#000" fill-rule="nonzero" d="M86.911 56.322V24.437h5.85l12.186 21.292V24.437h5.587v31.885h-6.037L92.498 35.528v20.794h-5.587zm42.422-7.35l5.692 1.018c-.736 2.235-1.886 3.935-3.467 5.1-1.574 1.172-3.55 1.752-5.919 1.752-3.75 0-6.523-1.307-8.325-3.935-1.421-2.101-2.136-4.759-2.136-7.959 0-3.83.936-6.83 2.808-8.998 1.864-2.167 4.228-3.25 7.084-3.25 3.21 0 5.74 1.135 7.597 3.406 1.851 2.272 2.74 5.747 2.663 10.43h-14.3c.04 1.813.498 3.222 1.38 4.226.88 1.01 1.981 1.514 3.292 1.514.893 0 1.642-.26 2.252-.78.61-.526 1.074-1.365 1.379-2.523zm.326-6.176c-.042-1.774-.464-3.118-1.275-4.038-.811-.921-1.803-1.381-2.967-1.381-1.249 0-2.274.49-3.084 1.462-.811.966-1.215 2.287-1.2 3.957h8.526zm20.207-9.569v4.87h-3.896v9.31c0 1.885.035 2.983.112 3.296.076.311.242.564.506.772.262.2.589.305.962.305.535 0 1.297-.202 2.302-.587l.486 4.737c-1.332.608-2.828.913-4.513.913-1.027 0-1.955-.185-2.78-.55-.825-.37-1.428-.853-1.817-1.44-.387-.587-.651-1.381-.803-2.383-.119-.705-.182-2.146-.182-4.305V38.097h-2.62v-4.87h2.62v-4.595l5.727-3.564v8.16h3.896z"/>
        <path fill="#FFF" d="M59.308 47.368V32.166h4.051c8.877 0 8.968 6.544 8.968 8.328 0 1.647-.092 8.328-8.968 8.328h-2.854v7.687h4.593c11.485 0 16.472-7.413 16.472-16.015 0-7.184-3.295-16.016-16.472-16.016H50.339v24.343H32.08l15.187-24.343H22.071l-5.11 7.688h15.76L16.458 56.508h35.847l7.003-9.14z"/>
    </g>
</svg>
