<svg xmlns="http://www.w3.org/2000/svg" width="300" height="80" viewBox="0 0 300 80">
    <g fill="none" fill-rule="evenodd">
        <path fill="#FFF" d="M0 0h300v80H0z"/>
        <path fill="#4285F4" fill-rule="nonzero" d="M49.18 41.276c-3.901.05-7.654-1.492-10.394-4.268a13.858 13.858 0 0 1-4.363-10.268 13.874 13.874 0 0 1 4.363-10.268 14.346 14.346 0 0 1 10.393-4.346 13.921 13.921 0 0 1 9.969 4.016l-2.803 2.85a10.094 10.094 0 0 0-7.166-2.835 9.984 9.984 0 0 0-7.401 3.15 10.283 10.283 0 0 0-3.04 7.48 10.283 10.283 0 0 0 3.04 7.386 10.567 10.567 0 0 0 14.74.173 8.378 8.378 0 0 0 2.157-4.897h-9.449v-4.032h13.37c.132.812.185 1.635.158 2.457a12.598 12.598 0 0 1-3.449 9.291 13.402 13.402 0 0 1-10.126 4.11z"/>
        <path fill="#EA4335" fill-rule="nonzero" d="M80.266 38.598a9.638 9.638 0 0 1-13.339 0 8.976 8.976 0 0 1-2.724-6.692 8.992 8.992 0 0 1 2.724-6.693 9.654 9.654 0 0 1 13.339 0 8.992 8.992 0 0 1 2.724 6.693 8.976 8.976 0 0 1-2.74 6.692h.016zm-10.394-2.63a5.102 5.102 0 0 0 7.449 0 5.606 5.606 0 0 0 1.575-4.062 5.622 5.622 0 0 0-1.575-4.08 5.181 5.181 0 0 0-7.48 0 5.622 5.622 0 0 0-1.575 4.08 5.606 5.606 0 0 0 1.59 4.063h.016z"/>
        <path fill="#FBBC05" fill-rule="nonzero" d="M100.77 38.598a9.638 9.638 0 0 1-13.339 0 8.976 8.976 0 0 1-2.724-6.692 8.992 8.992 0 0 1 2.724-6.693 9.638 9.638 0 0 1 13.339 0 8.992 8.992 0 0 1 2.724 6.693 8.976 8.976 0 0 1-2.724 6.692zm-10.394-2.63a5.102 5.102 0 0 0 7.449 0 5.606 5.606 0 0 0 1.575-4.062 5.622 5.622 0 0 0-1.575-4.08 5.181 5.181 0 0 0-7.48 0 5.622 5.622 0 0 0-1.575 4.08 5.606 5.606 0 0 0 1.59 4.063h.016z"/>
        <path fill="#4285F4" fill-rule="nonzero" d="M114.25 49.685a8.252 8.252 0 0 1-5.244-1.67 9.654 9.654 0 0 1-3.055-3.873l3.59-1.496a6.047 6.047 0 0 0 1.78 2.346 4.488 4.488 0 0 0 2.945.992 4.724 4.724 0 0 0 3.67-1.417 5.748 5.748 0 0 0 1.306-4.095v-1.354h-.142a6 6 0 0 1-4.929 2.126 8.551 8.551 0 0 1-6.299-2.74 9.055 9.055 0 0 1-2.693-6.598 9.15 9.15 0 0 1 2.693-6.646 8.535 8.535 0 0 1 6.3-2.756 6.772 6.772 0 0 1 2.897.646 5.827 5.827 0 0 1 2.047 1.496h.142V23.15h3.905V39.92a9.78 9.78 0 0 1-2.503 7.323 8.819 8.819 0 0 1-6.41 2.441zm.284-12.094a4.583 4.583 0 0 0 3.559-1.575 5.827 5.827 0 0 0 1.433-4.032 5.953 5.953 0 0 0-1.433-4.11 4.567 4.567 0 0 0-3.56-1.575 4.866 4.866 0 0 0-3.684 1.575 5.748 5.748 0 0 0-1.575 4.079 5.638 5.638 0 0 0 1.575 4.031 4.882 4.882 0 0 0 3.685 1.607z"/>
        <path fill="#34A853" fill-rule="nonzero" d="M130.108 13.181V40.71h-4.11V13.18z"/>
        <path fill="#EA4335" fill-rule="nonzero" d="M141.384 41.276a8.945 8.945 0 0 1-6.63-2.693 9.118 9.118 0 0 1-2.661-6.677 9.228 9.228 0 0 1 2.567-6.74 8.44 8.44 0 0 1 6.299-2.63 7.953 7.953 0 0 1 3.15.614 7.417 7.417 0 0 1 2.409 1.574 11.024 11.024 0 0 1 1.575 1.906c.365.584.676 1.201.929 1.842l.425 1.071-12.598 5.181a4.724 4.724 0 0 0 4.535 2.835 5.37 5.37 0 0 0 4.614-2.598l3.15 2.126a10.378 10.378 0 0 1-3.024 2.866 8.567 8.567 0 0 1-4.74 1.323zm-5.26-9.654l8.378-3.48a2.898 2.898 0 0 0-1.307-1.433 4.268 4.268 0 0 0-2.158-.552 4.866 4.866 0 0 0-3.385 1.497 4.992 4.992 0 0 0-1.528 3.968z"/>
        <path fill="#5F6368" d="M170.974 41.276A12.976 12.976 0 0 1 157.778 28a12.976 12.976 0 0 1 13.196-13.276 11.748 11.748 0 0 1 9.34 4.158l-2.269 2.205a8.567 8.567 0 0 0-7.055-3.229 9.622 9.622 0 0 0-7.008 2.803 9.827 9.827 0 0 0-2.85 7.339 9.827 9.827 0 0 0 2.85 7.339 9.622 9.622 0 0 0 7.008 2.803 10.016 10.016 0 0 0 7.874-3.685l2.268 2.267a12.378 12.378 0 0 1-4.362 3.323 13.354 13.354 0 0 1-5.796 1.229zM187.226 40.709h-3.26V15.276h3.26z"/>
        <path fill="#5F6368" fill-rule="nonzero" d="M192.55 25.402a9.118 9.118 0 0 1 12.85 0 9.213 9.213 0 0 1 2.52 6.614 9.213 9.213 0 0 1-2.52 6.614 9.118 9.118 0 0 1-12.85 0 9.213 9.213 0 0 1-2.52-6.614 9.213 9.213 0 0 1 2.52-6.614zm2.424 11.18a5.496 5.496 0 0 0 7.985 0 6.3 6.3 0 0 0 1.685-4.566 6.3 6.3 0 0 0-1.685-4.567 5.496 5.496 0 0 0-7.985 0 6.3 6.3 0 0 0-1.685 4.567 6.3 6.3 0 0 0 1.701 4.55l-.016.017z"/>
        <path fill="#5F6368" d="M225.982 40.709h-3.15v-2.41h-.094a6.063 6.063 0 0 1-2.299 2.173 6.425 6.425 0 0 1-3.228.867 6.126 6.126 0 0 1-4.945-1.985 7.874 7.874 0 0 1-1.685-5.323V23.323h3.26v10.11c0 3.244 1.433 4.866 4.299 4.866a4 4 0 0 0 3.307-1.575 5.937 5.937 0 0 0 1.276-3.763v-9.638h3.26v17.386z"/>
        <path fill="#5F6368" fill-rule="nonzero" d="M237.053 41.276a7.654 7.654 0 0 1-5.827-2.662 9.449 9.449 0 0 1-2.44-6.598 9.449 9.449 0 0 1 2.44-6.599 7.654 7.654 0 0 1 5.827-2.661 7.386 7.386 0 0 1 3.56.85 6.031 6.031 0 0 1 2.361 2.126h.142l-.142-2.41v-8.046h3.26v25.433h-3.15v-2.41h-.141a6.031 6.031 0 0 1-2.362 2.126 7.386 7.386 0 0 1-3.528.85zm.536-2.977a5.197 5.197 0 0 0 3.92-1.7 6.378 6.378 0 0 0 1.576-4.583 6.378 6.378 0 0 0-1.575-4.583 5.323 5.323 0 0 0-7.874 0A6.3 6.3 0 0 0 232.06 32a6.3 6.3 0 0 0 1.575 4.567 5.197 5.197 0 0 0 3.953 1.732z"/>
        <path fill="#999" d="M36.127 62.53v5.03H34.43V55.02h4.797c1.338 0 2.377.344 3.118 1.033.74.69 1.11 1.596 1.11 2.722 0 1.142-.37 2.054-1.11 2.734-.74.68-1.78 1.02-3.118 1.02h-3.1zm0-1.327h3.1c.85 0 1.484-.228 1.903-.684.42-.457.63-1.032.63-1.727 0-.695-.212-1.275-.634-1.74-.422-.465-1.055-.697-1.899-.697h-3.1v4.848zm15.01 6.356c-.057-.281-.101-.53-.133-.745a5.468 5.468 0 0 1-.056-.65 3.956 3.956 0 0 1-1.235 1.124 3.16 3.16 0 0 1-1.641.452c-.97 0-1.71-.248-2.218-.745s-.762-1.181-.762-2.054c0-.89.36-1.586 1.08-2.089.721-.502 1.699-.753 2.933-.753h1.843v-.922c0-.545-.166-.977-.5-1.296-.332-.318-.803-.478-1.412-.478-.545 0-.988.14-1.33.418-.342.278-.513.613-.513 1.003h-1.619l-.017-.051c-.034-.678.286-1.298.96-1.86.675-.563 1.546-.845 2.614-.845 1.057 0 1.906.269 2.55.806.642.536.964 1.31.964 2.32v4.488c0 .333.017.654.052.964.034.31.097.614.19.913h-1.75zm-2.815-1.24a3.02 3.02 0 0 0 1.662-.474c.494-.316.815-.677.964-1.085v-1.516h-1.903c-.683 0-1.23.173-1.64.517-.411.345-.616.75-.616 1.214 0 .414.129.741.387.982.259.241.64.362 1.146.362zm11.196-6.58l-.87-.052c-.448 0-.826.107-1.133.32a2.044 2.044 0 0 0-.71.895v6.657h-1.697v-9.318h1.516l.163 1.36c.265-.482.59-.858.978-1.128.388-.27.834-.405 1.34-.405a2.397 2.397 0 0 1 .646.095l-.233 1.576zm3.875-3.746v2.248h1.766v1.257h-1.766v5.658c0 .437.09.744.271.922.181.178.42.267.72.267a1.976 1.976 0 0 0 .637-.12l.224 1.162c-.127.103-.312.188-.556.254-.244.066-.49.099-.736.099-.69 0-1.237-.208-1.645-.624-.408-.417-.612-1.07-.612-1.96v-5.658h-1.48v-1.257h1.48v-2.248h1.697zm5.374 2.248l.12 1.386c.31-.494.7-.877 1.168-1.15.468-.272 1-.409 1.597-.409 1.005 0 1.783.295 2.334.883.551.589.827 1.497.827 2.726v5.882h-1.697v-5.848c0-.82-.162-1.403-.486-1.748-.325-.344-.82-.517-1.486-.517-.488 0-.92.118-1.296.353a2.578 2.578 0 0 0-.9.965v6.795H67.25v-9.318h1.516zm12.376 9.499c-1.298 0-2.33-.432-3.096-1.296-.767-.864-1.15-1.985-1.15-3.363v-.38c0-1.326.395-2.43 1.184-3.31.79-.882 1.724-1.323 2.803-1.323 1.258 0 2.208.38 2.851 1.137.643.758.965 1.769.965 3.032v1.059h-6.046l-.026.043c.017.896.244 1.632.68 2.21.437.576 1.048.865 1.835.865.574 0 1.078-.082 1.511-.246a3.475 3.475 0 0 0 1.124-.676l.663 1.102c-.333.328-.772.6-1.317.819-.546.218-1.206.327-1.981.327zm-.259-8.337c-.568 0-1.053.24-1.455.72-.402.479-.649 1.08-.74 1.804l.017.043h4.297v-.224c0-.666-.178-1.223-.534-1.671-.356-.448-.884-.672-1.585-.672zm10.128.336l-.87-.052c-.447 0-.825.107-1.132.32a2.044 2.044 0 0 0-.71.895v6.657h-1.697v-9.318h1.516l.163 1.36c.264-.482.59-.858.978-1.128.387-.27.834-.405 1.339-.405a2.397 2.397 0 0 1 .646.095l-.233 1.576z"/>
    </g>
</svg>
