<svg xmlns="http://www.w3.org/2000/svg" width="140" height="140" viewBox="0 0 140 140">
    <g fill="none" fill-rule="nonzero">
        <path fill="#333" d="M113.107 119.768c-3.62-3.62-9.513-3.62-13.134 0a9.279 9.279 0 0 0-2.489 8.604c-8.633 4.09-17.893 6.168-27.551 6.168-35.549 0-64.47-28.905-64.47-64.434 0-16.749 6.399-32.616 18.016-44.68a2.73 2.73 0 0 0-.073-3.86 2.733 2.733 0 0 0-3.863.074C6.941 34.726 0 51.938 0 70.106c0 18.67 7.274 36.221 20.483 49.423C33.692 132.729 51.253 140 69.933 140c10.619 0 20.797-2.319 30.276-6.88a9.261 9.261 0 0 0 6.331 2.49 9.26 9.26 0 0 0 6.567-2.714c3.622-3.62 3.622-9.509 0-13.128zm-3.863 9.267a3.83 3.83 0 0 1-5.408 0 3.825 3.825 0 0 1 0-5.406 3.814 3.814 0 0 1 2.704-1.118c.98 0 1.959.373 2.704 1.118a3.825 3.825 0 0 1 0 5.406zM134.972 95.878C138.307 87.57 140 78.784 140 69.722c0-15.415-5.105-30.465-14.413-42.636 2.192-3.578 1.751-8.34-1.328-11.439a9.194 9.194 0 0 0-13.047 0c-3.597 3.62-3.597 9.512 0 13.133a9.167 9.167 0 0 0 6.524 2.715c1.283 0 2.566-.27 3.76-.804 8.448 11.17 13.077 24.935 13.077 39.031 0 8.216-1.51 16.183-4.481 23.723a9.181 9.181 0 0 0-7.998 2.595c-3.597 3.62-3.597 9.512 0 13.132a9.166 9.166 0 0 0 6.523 2.716 9.167 9.167 0 0 0 6.524-2.716c3.597-3.62 3.597-9.511 0-13.132-.055-.056-.113-.108-.17-.162zm-14.55-70.96l-.037.033-.003.002c-.024.02-.044.042-.067.062a3.783 3.783 0 0 1-5.266-.098 3.846 3.846 0 0 1 0-5.407 3.775 3.775 0 0 1 2.687-1.118c.972 0 1.945.372 2.686 1.118a3.846 3.846 0 0 1 0 5.407zm10.882 80.392a3.786 3.786 0 0 1-5.372 0 3.846 3.846 0 0 1 0-5.407 3.775 3.775 0 0 1 4.321-.743c.082.049.167.094.255.134.284.164.554.364.796.609a3.845 3.845 0 0 1 0 5.407zM99.04 2.718c-3.374-3.36-8.714-3.597-12.37-.719A70.817 70.817 0 0 0 69.938 0C58.706 0 47.975 2.561 38.04 7.613a2.723 2.723 0 0 0-1.194 3.672 2.743 2.743 0 0 0 3.69 1.189c9.153-4.655 19.045-7.016 29.4-7.016 4.56 0 9.092.475 13.513 1.408a9.253 9.253 0 0 0 2.406 8.975 9.316 9.316 0 0 0 6.592 2.713 9.316 9.316 0 0 0 6.593-2.713c3.635-3.618 3.635-9.505 0-13.123zm-3.877 9.263a3.857 3.857 0 0 1-5.43 0 3.812 3.812 0 0 1 0-5.403 3.836 3.836 0 0 1 2.715-1.118c.983 0 1.966.373 2.715 1.118a3.813 3.813 0 0 1 0 5.403z"/>
        <path fill="#000" d="M32.078 14.653a2.797 2.797 0 0 0-3.909-.626l-.033.024a2.804 2.804 0 0 0 1.654 5.065c.569 0 1.143-.173 1.64-.532l.023-.018a2.804 2.804 0 0 0 .625-3.913z"/>
        <path fill="#ED0C6D" d="M92.86 44.418H47.14a2.722 2.722 0 0 0-2.722 2.721v45.722a2.722 2.722 0 0 0 2.721 2.721h45.722a2.722 2.722 0 0 0 2.721-2.721V47.139a2.722 2.722 0 0 0-2.721-2.721zm-2.72 45.721H49.86V49.861h40.28v40.278z"/>
        <path fill="#ED0C6D" d="M114.218 65.897a2.73 2.73 0 0 0 0-5.46H106.3v-7.644h7.917a2.73 2.73 0 0 0 0-5.46H106.3V35.867a2.73 2.73 0 0 0-2.73-2.73H92.105V25.22a2.73 2.73 0 0 0-5.46 0v7.917H79V25.22a2.73 2.73 0 0 0-5.46 0v7.917h-7.644V25.22a2.73 2.73 0 0 0-5.46 0v7.917h-7.644V25.22a2.73 2.73 0 0 0-5.46 0v7.917H35.867a2.73 2.73 0 0 0-2.73 2.73v11.466H25.22a2.73 2.73 0 0 0 0 5.46h7.917v7.644H25.22a2.73 2.73 0 0 0 0 5.46h7.917v7.644H25.22a2.73 2.73 0 0 0 0 5.46h7.917v7.644H25.22a2.73 2.73 0 0 0 0 5.46h7.917v11.466a2.73 2.73 0 0 0 2.73 2.73h11.466v7.917a2.73 2.73 0 0 0 5.46 0V106.3h7.644v7.917a2.73 2.73 0 0 0 5.46 0V106.3h7.644v7.917a2.73 2.73 0 0 0 5.46 0V106.3h7.644v7.917a2.73 2.73 0 0 0 5.46 0V106.3h11.466a2.73 2.73 0 0 0 2.73-2.73V92.105h7.917a2.73 2.73 0 0 0 0-5.46H106.3V79h7.917a2.73 2.73 0 0 0 0-5.46H106.3v-7.644h7.917zM100.84 100.84H38.597V38.597h62.244v62.244z"/>
        <path fill="#ED0C6D" d="M81.019 56.225H69.664c-1.522 0-2.756 1.259-2.756 2.811 0 1.553 1.234 2.811 2.756 2.811h11.355c1.522 0 2.756-1.258 2.756-2.81 0-1.553-1.234-2.812-2.756-2.812zM59.9 57.049a2.833 2.833 0 0 0-1.988-.824c-.743 0-1.465.3-1.988.824a2.82 2.82 0 0 0-.824 1.987c0 .74.298 1.465.824 1.987a2.832 2.832 0 0 0 1.988.824c.739 0 1.464-.3 1.987-.824a2.831 2.831 0 0 0 .824-1.987c0-.74-.3-1.465-.824-1.987zM81.053 67.47h-23.23c-1.504 0-2.723 1.259-2.723 2.811s1.22 2.811 2.723 2.811h23.23c1.503 0 2.722-1.259 2.722-2.81 0-1.553-1.219-2.812-2.722-2.812zM59.9 78.976a2.833 2.833 0 0 0-1.988-.823c-.74 0-1.465.3-1.99.823a2.83 2.83 0 0 0-.822 1.988c0 .74.298 1.465.821 1.987a2.844 2.844 0 0 0 1.99.824c.74 0 1.465-.3 1.988-.824a2.831 2.831 0 0 0 .824-1.987c0-.74-.3-1.465-.824-1.988zM71.144 78.976a2.831 2.831 0 0 0-1.987-.823c-.74 0-1.465.3-1.988.823a2.833 2.833 0 0 0-.824 1.988c0 .74.301 1.465.824 1.987a2.833 2.833 0 0 0 1.988.824c.742 0 1.464-.3 1.987-.824a2.831 2.831 0 0 0 .824-1.987c0-.743-.3-1.465-.824-1.988zM82.951 78.976a2.833 2.833 0 0 0-1.987-.823c-.74 0-1.465.3-1.988.823a2.828 2.828 0 0 0-.823 1.988c0 .74.3 1.465.823 1.987a2.833 2.833 0 0 0 1.988.824c.74 0 1.465-.3 1.987-.824a2.831 2.831 0 0 0 .824-1.987c0-.743-.3-1.465-.824-1.988z"/>
    </g>
</svg>
