<svg xmlns="http://www.w3.org/2000/svg" width="36" height="36" viewBox="0 0 36 36">
    <g fill="none" fill-rule="evenodd">
        <path fill="#ED0C6D" fill-opacity=".15" d="M0 0h36v36H0z"/>
        <path fill="#ED0C6D" stroke="#ED0C6D" d="M6.614 6.614h22.771v22.771H6.614z"/>
        <path fill="#FFF" d="M23.347 21.935c-.81 1.47-3.48 4.557-7.993 2.907-1.703-.634-3.024-2.171-3.515-4.09-.67-2.607.076-5.317 2.138-6.654.775-.508 3.164-.947 3.868.525a10.772 10.772 0 0 1 1.925-3.937l2.691.179s-2.414 1.628-4.113 6.063c1.1-1.621 2.671-2.12 3.723-1.766 2.942.998 2.387 4.742 1.276 6.773"/>
    </g>
</svg>
