<svg xmlns="http://www.w3.org/2000/svg" width="139" height="141" viewBox="0 0 139 141">
    <g fill="none" fill-rule="evenodd">
        <path fill="#636363" fill-rule="nonzero" d="M101.198 136.017l-1.354-1.695-3.32 1.477.337 2.147-3.035 1.349-1.228-11.746 3.679-1.635 7.94 8.76-3.02 1.343zm-2.932-3.702l-1.189-1.477c-.265-.328-.61-.757-1.014-1.28-.41-.538-.696-.908-.853-1.147.059.248.151.687.264 1.288.127.595.333 1.79.616 3.584l2.176-.968zM107.905 121.933l.785 1.208-.76 1.016c.307.156.56.403.774.731.503.775.628 1.572.35 2.35-.27.792-.94 1.545-2.03 2.253-.277.179-.504.289-.679.365.003.148.045.27.113.375.077.118.25.155.49.093s.52-.207.848-.42l1.209-.785c1.629-1.058 2.887-.903 3.783.476.571.88.642 1.824.209 2.796-.438.994-1.335 1.913-2.702 2.8-1.037.674-1.937 1.015-2.723 1.04-.774.017-1.374-.303-1.792-.946-.563-.867-.391-1.782.524-2.731a1.654 1.654 0 0 1-.877-.085c-.307-.1-.514-.245-.65-.455a1.263 1.263 0 0 1-.209-.724c.008-.247.134-.628.374-1.12a2.35 2.35 0 0 1-1.396-.196c-.44-.218-.827-.583-1.16-1.096-.512-.788-.65-1.576-.393-2.36.257-.783.887-1.51 1.886-2.158.131-.085.376-.225.708-.404.354-.174.608-.3.783-.377l2.535-1.646zm-.172 11.728c.128.198.344.3.653.286.3-.026.645-.157 1.013-.396.604-.392 1.039-.787 1.313-1.17.265-.397.321-.713.168-.95-.128-.197-.319-.26-.593-.193-.275.066-.629.24-1.036.504l-.985.64c-.263.17-.457.39-.564.627-.099.251-.088.469.031.652zm-2.974-6.305c.487.749.988.946 1.5.613a.762.762 0 0 0 .373-.634c.012-.27-.101-.588-.34-.955-.487-.75-.984-.968-1.483-.644-.512.333-.536.871-.05 1.62zM117.627 125.128c-1.08.955-2.184 1.409-3.29 1.363-1.108-.045-2.117-.595-3.062-1.663-.965-1.09-1.431-2.185-1.399-3.259.033-1.074.56-2.063 1.592-2.977.973-.861 1.964-1.278 2.939-1.24.984.049 1.898.537 2.749 1.5l.882.997-4 3.539c.333.353.711.52 1.156.504.423-.019.857-.214 1.29-.598.388-.343.72-.7.987-1.061a8.07 8.07 0 0 0 .736-1.342l1.422 1.607c-.185.5-.445.938-.758 1.34a9.824 9.824 0 0 1-1.244 1.29zm-4.728-5.083c-.27.239-.408.508-.45.838-.031.32.102.683.39 1.056l1.924-1.703c-.292-.306-.592-.48-.934-.512-.33-.042-.648.072-.93.32zM125.609 116.5l-3.636-3.026c-.445-.371-.82-.582-1.16-.64-.329-.07-.607.045-.848.334-.32.385-.394.792-.244 1.223.173.43.633.955 1.391 1.586l2.914 2.425-1.914 2.3-6.658-5.542 1.443-1.734 1.059.393.11-.133a2.33 2.33 0 0 1-.017-1.4c.134-.479.38-.946.752-1.392.61-.734 1.309-1.132 2.07-1.19.775-.049 1.547.247 2.318.889l4.334 3.607-1.914 2.3zM129.472 107.078c.216-.345.386-.793.513-1.379l1.845 1.156c-.07.437-.164.822-.289 1.169a7.705 7.705 0 0 1-.589 1.146c-.532.85-1.127 1.327-1.78 1.455-.658.105-1.411-.108-2.274-.649l-3.026-1.896-.558.889-1.035-.649-.09-1.627-1.132-1.615 1.04-1.66 1.473.924 1.132-1.805 1.898 1.189-1.131 1.805 2.853 1.788c.478.3.859.224 1.15-.24zM.188 53.806l.828-2.923 10.76 3.05-.828 2.923zM14.862 46.022l-4.318-1.931c-.53-.237-.947-.338-1.29-.303-.335.022-.573.207-.726.55-.205.458-.166.87.096 1.245.282.366.866.748 1.767 1.15l3.46 1.549-1.222 2.73-7.907-3.537.921-2.059 1.126.092.07-.157a2.33 2.33 0 0 1-.394-1.344c0-.497.11-1.014.348-1.543.39-.872.954-1.443 1.672-1.706.732-.256 1.556-.179 2.471.23l5.148 2.303-1.222 2.731zM18.035 36.088c.222-.342.4-.787.537-1.37l1.824 1.19a6.474 6.474 0 0 1-.31 1.162c-.152.35-.344.73-.61 1.136-.547.84-1.15 1.307-1.805 1.422-.66.094-1.41-.133-2.262-.69l-2.992-1.95-.573.879-1.023-.667-.06-1.63-1.103-1.634 1.07-1.64 1.456.949 1.163-1.785 1.877 1.224-1.164 1.784 2.821 1.84c.472.308.854.239 1.154-.22zM24.924 31.22c-.96 1.076-2.002 1.657-3.107 1.743-1.104.085-2.172-.342-3.236-1.29-1.087-.97-1.679-2-1.774-3.071-.094-1.071.312-2.115 1.229-3.144.865-.97 1.8-1.501 2.772-1.58.983-.067 1.948.31 2.907 1.165l.994.886-3.555 3.987c.373.312.768.433 1.208.364.418-.068.825-.314 1.211-.746.344-.386.632-.78.854-1.17a8.07 8.07 0 0 0 .573-1.42l1.602 1.428a5.027 5.027 0 0 1-.595 1.421 9.823 9.823 0 0 1-1.083 1.427zm-5.295-4.489c-.24.27-.346.553-.349.886.008.32.183.666.513 1.002l1.71-1.918c-.327-.27-.645-.406-.989-.398-.333-.003-.635.148-.885.428zM21.486 17.623l2.269-1.95 7.761 9.027-2.268 1.95zM26.888 13.227l2.443-1.727 6.872 9.722-2.443 1.727zM41.238 18.183l-2.597 1.484-4.297-7.522 2.598-1.484 4.296 7.522zm-8.035-7.876c-.225-.395-.28-.742-.17-1.057.108-.315.408-.612.884-.884.49-.28.884-.379 1.232-.307.326.066.598.29.815.67.436.762.19 1.407-.734 1.936-.911.52-1.591.404-2.027-.358zM48.036 5.697l.545 1.334-.936.857c.273.21.475.5.624.862.35.855.324 1.661-.096 2.374-.413.728-1.211 1.342-2.415 1.834-.304.124-.548.19-.734.232a.693.693 0 0 0 .041.39c.053.13.217.199.464.182.247-.016.549-.106.911-.254l1.334-.545c1.798-.735 3.005-.349 3.628 1.173.397.972.29 1.912-.316 2.787-.616.894-1.67 1.63-3.177 2.246-1.145.469-2.092.636-2.87.514-.763-.128-1.293-.555-1.583-1.265-.392-.957-.052-1.824 1.024-2.585-.288-.001-.576-.086-.845-.247-.284-.155-.46-.337-.554-.569a1.263 1.263 0 0 1-.07-.75c.053-.241.248-.592.577-1.03a2.35 2.35 0 0 1-1.336-.453c-.392-.297-.704-.728-.935-1.293-.356-.87-.344-1.67.054-2.392.4-.721 1.154-1.318 2.256-1.768.145-.06.412-.152.772-.265.38-.105.653-.182.839-.225l2.798-1.144zm-2.359 11.49c.09.218.282.36.588.404.3.03.663-.035 1.069-.2.667-.273 1.168-.58 1.509-.905.334-.34.448-.64.342-.902-.09-.217-.264-.315-.546-.3-.283.013-.663.118-1.112.301l-1.088.445c-.29.119-.521.298-.67.511-.144.228-.175.444-.092.647zm-1.744-6.749c.338.827.794 1.114 1.36.883a.762.762 0 0 0 .484-.554c.062-.262.01-.596-.156-1.002-.338-.827-.786-1.134-1.337-.91-.565.232-.69.757-.351 1.583zM57.477 12.398c-1.407.309-2.593.168-3.538-.41-.945-.579-1.559-1.55-1.865-2.943-.312-1.422-.187-2.605.364-3.528.552-.922 1.493-1.53 2.839-1.826 1.27-.278 2.338-.16 3.171.346.837.522 1.397 1.394 1.672 2.648l.286 1.3-5.217 1.146c.119.471.368.802.765 1.003.378.19.852.23 1.418.106.505-.111.97-.261 1.378-.447a8.07 8.07 0 0 0 1.297-.814l.46 2.096a5.027 5.027 0 0 1-1.316.802c-.469.2-1.04.373-1.714.52zm-1.656-6.741a1.284 1.284 0 0 0-.802.513c-.182.264-.243.646-.172 1.112l2.509-.55c-.106-.41-.284-.708-.567-.903-.268-.198-.6-.253-.968-.172zM69.09 10.901l-.181-4.727c-.023-.58-.117-.999-.3-1.29-.169-.291-.44-.422-.816-.407-.5.019-.853.236-1.073.637-.203.415-.286 1.108-.248 2.094l.145 3.788-2.99.115-.332-8.656 2.254-.087.416 1.05.172-.006a2.33 2.33 0 0 1 1.03-.949c.446-.221.958-.35 1.537-.373.955-.036 1.717.216 2.27.744.555.543.85 1.315.89 2.317l.216 5.635-2.99.115zM79.366 9.325c.405.047.883.009 1.466-.128l-.252 2.162a6.474 6.474 0 0 1-1.18.241c-.38.019-.806.016-1.288-.04-.996-.116-1.683-.45-2.077-.984-.378-.549-.508-1.321-.39-2.332l.414-3.548-1.042-.122.142-1.213 1.431-.78.974-1.715 1.944.228-.201 1.726 2.115.248-.26 2.225-2.115-.248-.391 3.345c-.066.56.166.871.71.935z"/>
        <path fill="#C9D200" d="M77.927 113.328c-1.193 2.166-5.125 6.71-11.769 4.28-2.508-.932-4.453-3.195-5.176-6.02-.985-3.84.113-7.829 3.148-9.797 1.141-.75 4.659-1.395 5.696.772.497-1.888 1.329-3.856 2.834-5.797l3.962.264s-3.555 2.398-6.056 8.927c1.619-2.387 3.933-3.123 5.481-2.601 4.333 1.47 3.515 6.983 1.88 9.972M77.927 78.084c-1.193 2.165-5.125 6.71-11.769 4.28-2.508-.933-4.453-3.196-5.176-6.021-.985-3.839.113-7.828 3.148-9.797 1.141-.75 4.659-1.394 5.696.772.497-1.887 1.329-3.856 2.834-5.797l3.962.264s-3.555 2.398-6.056 8.928c1.619-2.387 3.933-3.124 5.481-2.602 4.333 1.47 3.515 6.984 1.88 9.973M45.62 96.685c-1.193 2.166-5.126 6.71-11.77 4.28-2.508-.933-4.453-3.195-5.176-6.02-.985-3.84.113-7.829 3.148-9.798 1.141-.749 4.659-1.394 5.696.773.497-1.888 1.33-3.857 2.834-5.797l3.962.263s-3.555 2.399-6.056 8.928c1.62-2.387 3.934-3.123 5.481-2.601 4.334 1.47 3.515 6.983 1.88 9.972M45.62 59.482c-1.193 2.166-5.126 6.71-11.77 4.28-2.508-.933-4.453-3.195-5.176-6.02-.985-3.84.113-7.829 3.148-9.798 1.141-.749 4.659-1.394 5.696.773.497-1.888 1.33-3.857 2.834-5.797l3.962.263s-3.555 2.399-6.056 8.928c1.62-2.387 3.934-3.123 5.481-2.601 4.334 1.47 3.515 6.983 1.88 9.972M110.235 96.685c-1.193 2.166-5.126 6.71-11.77 4.28-2.507-.933-4.453-3.195-5.175-6.02-.985-3.84.112-7.829 3.147-9.798 1.142-.749 4.66-1.394 5.696.773.498-1.888 1.33-3.857 2.834-5.797l3.963.263s-3.555 2.399-6.057 8.928c1.62-2.387 3.934-3.123 5.482-2.601 4.333 1.47 3.515 6.983 1.88 9.972M110.235 59.482c-1.193 2.166-5.126 6.71-11.77 4.28-2.507-.933-4.453-3.195-5.175-6.02-.985-3.84.112-7.829 3.147-9.798 1.142-.749 4.66-1.394 5.696.773.498-1.888 1.33-3.857 2.834-5.797l3.963.263s-3.555 2.399-6.057 8.928c1.62-2.387 3.934-3.123 5.482-2.601 4.333 1.47 3.515 6.983 1.88 9.972M77.927 42.839c-1.193 2.165-5.125 6.71-11.769 4.28-2.508-.933-4.453-3.195-5.176-6.02-.985-3.84.113-7.83 3.148-9.798 1.141-.749 4.659-1.394 5.696.773.497-1.888 1.329-3.857 2.834-5.797l3.962.263s-3.555 2.399-6.056 8.928c1.619-2.387 3.933-3.123 5.481-2.601 4.333 1.469 3.515 6.983 1.88 9.972"/>
        <path fill="#EC006D" d="M90.208 137.238a.488.488 0 0 1-.343.546 68.947 68.947 0 0 1-18.816 2.837h-.811c-17.986 0-34.91-6.908-47.804-19.496l-.392-.391.084 7.663a2.573 2.573 0 0 1-2.517 2.574h-.029a2.55 2.55 0 0 1-2.545-2.517l-.168-13.79a2.574 2.574 0 0 1 2.517-2.574l13.79-.168c1.427-.028 2.546 1.12 2.575 2.518a2.574 2.574 0 0 1-2.518 2.573l-7.664.085.392.391c12.083 11.804 28.055 18.237 45.006 18.014a63.644 63.644 0 0 0 17.951-2.781.491.491 0 0 1 .404.05.49.49 0 0 1 .224.34l.664 4.126zm37.182-36.549a.489.489 0 0 1-.204-.647c7.467-15.12 8.636-32.791 2.688-49.35-.475-1.315.224-2.77 1.539-3.245 1.315-.476 2.768.223 3.244 1.538 4.28 11.917 5.147 24.783 2.602 37.231a68.077 68.077 0 0 1-5.586 16.225.49.49 0 0 1-.672.212c-.868-.47-2.77-1.506-3.611-1.964zM2.878 60.067a.487.487 0 0 1 .61-.386l3.893 1.06a.49.49 0 0 1 .353.557C5.895 71.886 6.778 82.986 10.6 93.627c.476 1.314-.224 2.77-1.539 3.245a3.14 3.14 0 0 1-.866.14 2.523 2.523 0 0 1-2.378-1.68c-4.061-11.28-5.049-23.44-2.94-35.265zM85.706 6.154a.49.49 0 0 1 .603-.434c11.577 2.838 22.735 8.681 31.76 17.501l.365.364-.084-7.664a2.574 2.574 0 0 1 2.517-2.574 2.574 2.574 0 0 1 2.574 2.518l.167 13.79a2.52 2.52 0 0 1-.727 1.79c-.475.503-1.119.756-1.79.812l-13.79.167h-.028a2.548 2.548 0 0 1-2.545-2.517 2.574 2.574 0 0 1 2.517-2.574l7.664-.084-.391-.392a62.917 62.917 0 0 0-28.8-16.109.491.491 0 0 1-.37-.517l.358-4.077z"/>
    </g>
</svg>
