<svg xmlns="http://www.w3.org/2000/svg" width="25" height="26" viewBox="0 0 25 26">
    <g fill="#FFF" fill-rule="evenodd">
        <path d="M24.988 13.243c0-1.065-.085-1.842-.27-2.648H12.75v4.807h7.026c-.142 1.195-.906 2.995-2.606 4.204l-.024.16 3.784 2.98.263.027c2.408-2.26 3.796-5.586 3.796-9.53"/>
        <path d="M12.749 25.91c3.442 0 6.332-1.151 8.443-3.137l-4.023-3.167c-1.077.763-2.522 1.295-4.42 1.295-3.371 0-6.233-2.26-7.253-5.383l-.15.013-3.935 3.094-.051.146c2.096 4.232 6.403 7.14 11.389 7.14"/>
        <path d="M5.496 15.518a8.092 8.092 0 0 1-.425-2.563c0-.892.156-1.756.411-2.562l-.007-.172L1.49 7.077l-.13.063A13.139 13.139 0 0 0 0 12.955c0 2.088.496 4.06 1.36 5.816l4.136-3.253"/>
        <path d="M12.749 5.01c2.394 0 4.009 1.05 4.93 1.928l3.598-3.57C19.067 1.281 16.19 0 12.749 0 7.763 0 3.456 2.908 1.359 7.14l4.123 3.253C6.516 7.27 9.378 5.01 12.749 5.01"/>
    </g>
</svg>
