<svg xmlns="http://www.w3.org/2000/svg" width="111" height="34" viewBox="0 0 111 34">
    <g fill="none" fill-rule="evenodd">
        <path fill="#C2D82E" d="M0 33.622h20.171V0H0z"/>
        <path fill="#C2D82E" d="M9.612 17.476a.672.672 0 1 0 0 1.345.673.673 0 0 0 0-1.345zm10.56 16.146l-4.103.004c-.593 0-.804-.047-1.028-.566-.907-2.103-.702-2.732.306-3.8.849-.895.764-1.618.065-2.927 0 0-.703-1.342-1.06-2.07-.35-.712 1.494-1.101.814-2.041-.431-.595-1.988-2.791-3.314-4.657-1.276-1.798-2.838-3.151-4.617-3.045-2.927.175-5.841 3.07-4.373 7.805.791 2.554 2.576 8.483 2.915 9.609.339 1.127.247 1.68-.853 1.68L0 33.622V0h20.171v33.622z"/>
        <path fill="#C2D82E" d="M16.997 9.232c-.298-.102-.746.04-1.057.496.482-1.248 1.167-1.706 1.167-1.706l-.765-.05c-.29.37-.45.749-.545 1.108-.2-.412-.879-.29-1.1-.147-.586.375-.797 1.137-.607 1.872.14.54.514.973.999 1.15 1.282.464 2.041-.404 2.27-.817.317-.571.474-1.627-.362-1.906zm-5.733 0c-.298-.102-.745.04-1.057.496.482-1.248 1.167-1.706 1.167-1.706l-.764-.05c-.29.37-.451.749-.545 1.108-.2-.412-.88-.29-1.1-.147-.587.375-.798 1.137-.607 1.872.139.54.514.973.998 1.15 1.282.464 2.042-.404 2.271-.817.316-.571.473-1.627-.363-1.906zm-5.732 0c-.298-.102-.746.04-1.057.496.482-1.248 1.167-1.706 1.167-1.706l-.765-.05c-.29.37-.45.749-.545 1.108-.2-.412-.879-.29-1.1-.147-.586.375-.797 1.137-.607 1.872.14.54.514.973.999 1.15 1.281.464 2.041-.404 2.27-.817.317-.571.473-1.627-.362-1.906zm11.465-5.436c-.298-.1-.746.04-1.057.496.482-1.246 1.167-1.705 1.167-1.705l-.765-.051c-.29.37-.45.748-.545 1.108-.2-.413-.879-.29-1.1-.148-.586.376-.797 1.14-.607 1.873.14.54.514.972.999 1.15 1.282.464 2.041-.405 2.27-.817.317-.571.474-1.625-.362-1.906zm-5.733 0c-.298-.1-.745.04-1.057.496.482-1.246 1.167-1.705 1.167-1.705l-.764-.051c-.29.37-.451.748-.545 1.108-.2-.413-.88-.29-1.1-.148-.587.376-.798 1.14-.607 1.873.139.54.514.972.998 1.15 1.282.464 2.042-.405 2.271-.817.316-.571.473-1.625-.363-1.906zm-5.37 1.906c-.229.412-.989 1.281-2.27.817-.485-.178-.86-.61-.999-1.15-.19-.734.02-1.497.607-1.873.221-.142.9-.265 1.1.148.094-.36.255-.737.545-1.108l.765.051s-.685.459-1.167 1.705c.311-.456.759-.596 1.057-.496.835.28.679 1.335.363 1.906z"/>
        <path fill="#221F1F" d="M25.778 8.957v3.364h-.408V8.957H24.26v-.355h2.626v.355zM28.493 11.135h-.743c-.398 0-.592.157-.592.455 0 .297.188.439.608.439.226 0 .426-.016.592-.172.091-.084.135-.23.135-.444v-.278zm0 1.186v-.245c-.215.208-.409.276-.764.276-.366 0-.581-.068-.748-.235a.727.727 0 0 1-.2-.521c0-.45.323-.742.916-.742h.796v-.246c0-.376-.194-.565-.678-.565-.339 0-.511.08-.667.293l-.263-.235c.236-.297.505-.382.936-.382.71 0 1.06.298 1.06.857v1.745h-.388zM30.352 12.321c-.463 0-.673-.292-.673-.684V8.602h.387v3.02c0 .25.086.375.356.375h.21v.324h-.28zM32.584 10.425a.66.66 0 0 0-.62-.386.658.658 0 0 0-.618.386c-.06.141-.07.22-.08.429h1.399c-.012-.21-.022-.288-.081-.429zm-1.318.71c0 .565.273.888.78.888.306 0 .484-.087.694-.291l.263.223c-.269.261-.516.397-.968.397-.7 0-1.157-.406-1.157-1.315 0-.831.414-1.318 1.087-1.318.683 0 1.087.482 1.087 1.244v.172h-1.786zM35.437 12.321v-1.583c0-.453-.252-.683-.65-.683-.399 0-.657.234-.657.683v1.583h-.388v-2.57h.388v.282a.969.969 0 0 1 .743-.314c.285 0 .516.085.678.241.188.178.274.418.274.716v1.645h-.388zM37.377 12.321c-.452 0-.678-.308-.678-.689v-1.577h-.334v-.288h.334v-.804h.387v.804h.565v.288h-.565v1.567c0 .235.113.375.36.375h.205v.324h-.274zM41.904 8.957v3.364h-.409V8.957h-1.109v-.355h2.626v.355zM44.678 10.425a.66.66 0 0 0-.62-.386.66.66 0 0 0-.618.386c-.06.141-.07.22-.08.429h1.398c-.01-.21-.021-.288-.08-.429zm-1.319.71c0 .565.275.888.78.888.307 0 .485-.087.694-.291l.264.223c-.27.261-.517.397-.968.397-.7 0-1.157-.406-1.157-1.315 0-.831.414-1.318 1.086-1.318.684 0 1.088.482 1.088 1.244v.172h-1.787zM46.865 12.352c-.668 0-1.173-.438-1.173-1.315 0-.878.505-1.318 1.173-1.318.366 0 .597.094.872.382l-.264.24c-.199-.214-.355-.286-.608-.286-.259 0-.474.098-.613.291-.124.168-.173.366-.173.69 0 .324.049.522.173.69.139.193.354.293.613.293.253 0 .41-.079.608-.294l.264.246c-.275.288-.506.381-.872.381zM50.037 12.321v-1.588c0-.448-.248-.678-.646-.678s-.662.234-.662.678v1.588h-.387V8.602h.387v1.431a.962.962 0 0 1 .743-.314c.597 0 .952.372.952.951v1.651h-.387zM52.929 12.321v-1.583c0-.453-.254-.683-.652-.683s-.656.234-.656.683v1.583h-.388v-2.57h.388v.282a.969.969 0 0 1 .742-.314c.286 0 .516.085.679.241.188.178.274.418.274.716v1.645h-.387zM55.551 10.243a.691.691 0 0 0-.484-.188.675.675 0 0 0-.479.188c-.194.188-.215.507-.215.794 0 .287.021.605.215.793.124.12.29.189.479.189.188 0 .36-.068.484-.189.194-.188.21-.506.21-.793 0-.287-.016-.606-.21-.794zm.275 1.818a1.055 1.055 0 0 1-.76.291c-.322 0-.575-.114-.758-.291-.27-.268-.323-.628-.323-1.024 0-.397.054-.759.323-1.024.183-.178.436-.294.759-.294s.576.116.759.294c.268.265.322.627.322 1.024 0 .396-.054.756-.322 1.024zM57.507 12.321c-.463 0-.673-.292-.673-.684V8.602h.387v3.02c0 .25.086.375.355.375h.21v.324h-.28zM59.63 10.243a.688.688 0 0 0-.483-.188.678.678 0 0 0-.48.188c-.193.188-.215.507-.215.794 0 .287.022.605.215.793.125.12.291.189.48.189s.36-.068.483-.189c.195-.188.21-.506.21-.793 0-.287-.015-.606-.21-.794zm.275 1.818a1.056 1.056 0 0 1-.758.291 1.06 1.06 0 0 1-.76-.291c-.27-.268-.322-.628-.322-1.024 0-.397.053-.759.322-1.024.184-.178.436-.294.76-.294.322 0 .574.116.758.294.269.265.322.627.322 1.024 0 .396-.053.756-.322 1.024zM61.834 10.055c-.576 0-.662.48-.662.96 0 .481.086.962.662.962.576 0 .656-.481.656-.962 0-.48-.08-.96-.656-.96zm-.06 3.447c-.397 0-.618-.1-.899-.345l.253-.24c.195.167.329.256.635.256.51 0 .727-.35.727-.79v-.402c-.216.268-.457.335-.743.335-.269 0-.5-.093-.64-.23-.263-.256-.323-.653-.323-1.07 0-.418.06-.815.323-1.071.14-.136.376-.226.645-.226.292 0 .528.064.743.336v-.303h.383V12.4c0 .636-.41 1.101-1.104 1.101zM64.37 12.943a.734.734 0 0 1-.19.304.74.74 0 0 1-.515.177H63.5v-.335h.119c.268 0 .349-.084.435-.318l.189-.502-.953-2.517h.42l.726 2.063.72-2.063h.42l-1.205 3.19zM69.719 12.352c-.575 0-.952-.14-1.313-.49l.28-.272c.318.308.614.407 1.044.407.56 0 .905-.255.905-.688 0-.194-.06-.362-.184-.465-.123-.106-.22-.136-.5-.178l-.446-.068c-.302-.048-.539-.142-.706-.283-.193-.166-.29-.396-.29-.695 0-.631.468-1.05 1.227-1.05.49 0 .812.12 1.14.408l-.263.257c-.238-.21-.49-.32-.894-.32-.51 0-.806.278-.806.69 0 .182.053.33.172.428.118.1.318.173.517.203l.419.064c.36.053.538.125.699.261.21.172.323.429.323.736 0 .654-.527 1.055-1.324 1.055zM73.123 10.243a.691.691 0 0 0-.485-.188.677.677 0 0 0-.479.188c-.194.188-.214.507-.214.794 0 .287.02.605.214.793.124.12.29.189.48.189.187 0 .36-.068.484-.189.193-.188.21-.506.21-.793 0-.287-.017-.606-.21-.794zm.274 1.818a1.058 1.058 0 0 1-.759.291c-.322 0-.576-.114-.758-.291-.27-.268-.323-.628-.323-1.024 0-.397.053-.759.323-1.024.182-.178.436-.294.758-.294.323 0 .576.116.76.294.269.265.322.627.322 1.024 0 .396-.053.756-.323 1.024zM75.078 12.321c-.462 0-.672-.292-.672-.684V8.602h.387v3.02c0 .25.086.375.356.375h.208v.324h-.279zM77.557 12.321v-.287a.983.983 0 0 1-.748.318c-.284 0-.522-.083-.682-.24-.188-.176-.27-.422-.27-.72v-1.64h.387v1.583c0 .454.248.684.647.684.397 0 .661-.236.661-.684V9.752h.388v2.57h-.383zM79.518 12.321c-.452 0-.678-.308-.678-.689v-1.577h-.333v-.288h.333v-.804h.388v.804h.565v.288h-.565v1.567c0 .235.113.375.36.375h.205v.324h-.275zM80.431 12.321v-2.57h.388v2.57h-.388zM80.41 9.02v-.423h.437v.423h-.437zM83.088 10.243a.69.69 0 0 0-.484-.188.677.677 0 0 0-.479.188c-.194.188-.216.507-.216.794 0 .287.022.605.216.793.124.12.29.189.48.189a.69.69 0 0 0 .483-.189c.194-.188.21-.506.21-.793 0-.287-.016-.606-.21-.794zm.274 1.818a1.054 1.054 0 0 1-.758.291c-.322 0-.576-.114-.759-.291-.27-.268-.322-.628-.322-1.024 0-.397.052-.759.322-1.024a1.06 1.06 0 0 1 .76-.294c.322 0 .575.116.757.294.27.265.323.627.323 1.024 0 .396-.054.756-.323 1.024zM86.077 12.321v-1.583c0-.453-.253-.683-.652-.683-.397 0-.656.234-.656.683v1.583h-.387v-2.57h.387v.282a.97.97 0 0 1 .743-.314c.286 0 .517.085.678.241.188.178.275.418.275.716v1.645h-.388zM88.108 12.352c-.447 0-.797-.099-1.087-.37l.258-.25c.21.214.496.297.824.297.436 0 .704-.151.704-.455 0-.224-.133-.35-.441-.375l-.436-.038c-.516-.04-.79-.266-.79-.689 0-.47.408-.753.974-.753.375 0 .715.09.952.279l-.254.245c-.187-.142-.43-.204-.704-.204-.388 0-.591.162-.591.424 0 .219.128.348.462.374l.425.037c.463.042.78.216.78.695 0 .496-.436.783-1.076.783z"/>
        <path fill="#FFF" d="M0 33.622h20.171V0H0z"/>
        <path fill="#ED106D" d="M9.612 17.476a.672.672 0 1 0 0 1.345.673.673 0 0 0 0-1.345zm10.56 16.146l-4.103.004c-.593 0-.804-.047-1.028-.566-.907-2.103-.702-2.732.306-3.8.849-.895.764-1.618.065-2.927 0 0-.703-1.342-1.06-2.07-.35-.712 1.494-1.101.814-2.041-.431-.595-1.988-2.791-3.314-4.657-1.276-1.798-2.838-3.151-4.617-3.045-2.927.175-5.841 3.07-4.373 7.805.791 2.554 2.576 8.483 2.915 9.609.339 1.127.247 1.68-.853 1.68L0 33.622V0h20.171v33.622z"/>
        <path fill="#C2D82E" d="M16.997 9.232c-.298-.102-.746.04-1.057.496.482-1.248 1.167-1.706 1.167-1.706l-.765-.05c-.29.37-.45.749-.545 1.108-.2-.412-.879-.29-1.1-.147-.586.375-.797 1.137-.607 1.872.14.54.514.973.999 1.15 1.282.464 2.041-.404 2.27-.817.317-.571.474-1.627-.362-1.906zm-5.733 0c-.298-.102-.745.04-1.057.496.482-1.248 1.167-1.706 1.167-1.706l-.764-.05c-.29.37-.451.749-.545 1.108-.2-.412-.88-.29-1.1-.147-.587.375-.798 1.137-.607 1.872.139.54.514.973.998 1.15 1.282.464 2.042-.404 2.271-.817.316-.571.473-1.627-.363-1.906zm-5.732 0c-.298-.102-.746.04-1.057.496.482-1.248 1.167-1.706 1.167-1.706l-.765-.05c-.29.37-.45.749-.545 1.108-.2-.412-.879-.29-1.1-.147-.586.375-.797 1.137-.607 1.872.14.54.514.973.999 1.15 1.281.464 2.041-.404 2.27-.817.317-.571.473-1.627-.362-1.906zm11.465-5.436c-.298-.1-.746.04-1.057.496.482-1.246 1.167-1.705 1.167-1.705l-.765-.051c-.29.37-.45.748-.545 1.108-.2-.413-.879-.29-1.1-.148-.586.376-.797 1.14-.607 1.873.14.54.514.972.999 1.15 1.282.464 2.041-.405 2.27-.817.317-.571.474-1.625-.362-1.906zm-5.733 0c-.298-.1-.745.04-1.057.496.482-1.246 1.167-1.705 1.167-1.705l-.764-.051c-.29.37-.451.748-.545 1.108-.2-.413-.88-.29-1.1-.148-.587.376-.798 1.14-.607 1.873.139.54.514.972.998 1.15 1.282.464 2.042-.405 2.271-.817.316-.571.473-1.625-.363-1.906zm-5.37 1.906c-.229.412-.989 1.281-2.27.817-.485-.178-.86-.61-.999-1.15-.19-.734.02-1.497.607-1.873.221-.142.9-.265 1.1.148.094-.36.255-.737.545-1.108l.765.051s-.685.459-1.167 1.705c.311-.456.759-.596 1.057-.496.835.28.679 1.335.363 1.906z"/>
        <path fill="#231F20" d="M107.354 18.487v1.393h.031c.554-.966 1.297-1.63 2.358-1.63.173 0 .252.016.378.048v1.454h-.553c-1.313 0-2.12 1.028-2.12 2.246v4.856h-1.408v-8.367h1.314zm-5.993 7.386c2.008 0 2.436-2.088 2.436-3.21 0-1.124-.428-3.196-2.436-3.196-2.009 0-2.436 2.072-2.436 3.195 0 1.123.427 3.211 2.436 3.211zm0-7.624c2.673 0 3.876 2.264 3.876 4.413 0 2.152-1.203 4.43-3.876 4.43-2.672 0-3.875-2.278-3.875-4.43 0-2.149 1.203-4.413 3.875-4.413zm-5.33-2.071v2.326h1.345v1.17h-1.344v5.425c0 .617.553.664.838.664h.49v1.09c-.411.08-.901.127-1.044.127-1.391 0-1.692-.79-1.692-1.803v-5.504H93.5v-1.17h1.123v-2.325h1.408zm-4.727 6.406c-.221.174-.57.301-2.309.522-.695.094-1.802.284-1.802 1.344 0 .918.49 1.47 1.534 1.47 1.312 0 2.577-.837 2.577-1.96v-1.376zm-5.14-1.55c0-2.01 1.376-2.785 3.448-2.785.664 0 3.1.19 3.1 2.34v4.779c0 .348.174.522.46.522.126 0 .3-.033.458-.063v1.027c-.238.063-.443.159-.76.159-1.25 0-1.423-.649-1.487-1.282-.553.587-1.39 1.36-3.02 1.36-1.534 0-2.61-.965-2.61-2.42 0-.995.253-2.467 3.195-2.688 2.198-.175 2.356-.35 2.356-1.218 0-.918-.617-1.345-1.945-1.345-1.598 0-1.82.982-1.898 1.614h-1.297zm-3.115-2.547v1.393h.031c.554-.966 1.298-1.63 2.358-1.63.173 0 .252.016.379.048v1.454h-.554c-1.312 0-2.12 1.028-2.12 2.246v4.856h-1.407v-8.367h1.313zm-8.444 4.16c0 1.82.711 3.226 2.246 3.226.886 0 2.214-.6 2.214-2.83 0-1.376-.142-3.527-2.167-3.527-2.183 0-2.293 2.04-2.293 3.131zm5.867-4.16v7.672c0 1.202-.03 4.206-3.89 4.206-.997 0-2.911-.27-3.18-2.497h1.408c.253 1.217 1.55 1.329 1.883 1.329 2.309 0 2.372-1.821 2.372-3.292-.395.649-1.14 1.187-2.262 1.187-2.832 0-3.638-2.674-3.638-4.666 0-2.389 1.25-4.177 3.48-4.177 1.439 0 2.104.808 2.515 1.424v-1.186h1.312zm-9.092 3.527c-.08-1.298-.633-2.498-2.358-2.498-1.28 0-2.293 1.2-2.293 2.498h4.651zm1.329 2.215c-.317 1.297-1.186 2.863-3.765 2.863-2.341 0-3.717-1.771-3.717-4.193 0-2.61 1.234-4.65 4.001-4.65 2.404 0 3.591 1.929 3.591 4.888h-6.09c0 1.725.808 2.736 2.42 2.736 1.313 0 2.151-1.027 2.151-1.644h1.409zm-8.936-8.051v2.326h1.344v1.17h-1.344v5.425c0 .617.553.664.838.664h.491v1.09a7.7 7.7 0 0 1-1.045.127c-1.392 0-1.692-.79-1.692-1.803v-5.504h-1.122v-1.17h1.122v-2.325h1.408zm-8.492 2.31v1.185h.046c.302-.443 1.077-1.424 2.516-1.424 1.297 0 2.927.54 2.927 2.912v5.693h-1.408v-5.156c0-1.44-.412-2.182-1.787-2.182-.792 0-2.2.504-2.2 2.783v4.555h-1.408v-8.367h1.314zm-2.736 8.366h-1.408v-8.367h1.408v8.367zm-1.408-9.885V15.37h1.408v1.6h-1.408zm-1.422 9.885h-2.231V15.37h2.231v11.484zm-3.574 0h-2.23V15.37h2.23v11.484zm-5.47-5.109c-.126-1.36-1.013-1.788-1.724-1.788-1.06 0-1.63.681-1.756 1.788h3.48zm2.198 2.61c-.585 2.04-2.278 2.722-3.732 2.722-2.39 0-4.24-1.156-4.24-4.651 0-1.028.364-4.302 4.081-4.302 2.389 0 3.986 1.311 3.986 4.239v.837h-5.773c0 .648.142 2.089 1.946 2.089.632 0 1.264-.333 1.44-.934h2.292zm-15.83.522h2.91c1.171 0 1.851-.522 1.851-1.693 0-.995-.854-1.39-1.723-1.39h-3.038v3.083zm0-5.015h2.8c.95 0 1.692-.363 1.692-1.28 0-.934-.664-1.234-1.756-1.234H27.04v2.514zM24.65 15.37h5.662c2.8 0 3.512 1.757 3.512 2.928 0 1.645-.917 2.134-1.392 2.372 1.407.522 1.755 1.63 1.755 2.751 0 .982-.363 3.433-4.602 3.433h-4.935V15.37z"/>
        <path fill="#221F1F" d="M39.569 10.728a.38.38 0 1 1-.761 0 .38.38 0 0 1 .76 0zM67.324 10.728a.38.38 0 1 1-.761 0 .38.38 0 0 1 .761 0z"/>
    </g>
</svg>
