<?xml version="1.0" encoding="UTF-8"?>
<svg width="144px" height="60px" viewBox="0 0 144 60" version="1.1" xmlns="http://www.w3.org/2000/svg" xmlns:xlink="http://www.w3.org/1999/xlink">
    <!-- Generator: Sketch 50.2 (55047) - http://www.bohemiancoding.com/sketch -->
    <title>logo</title>
    <desc>Created with Sketch.</desc>
    <defs></defs>
    <g id="Page-1" stroke="none" stroke-width="1" fill="none" fill-rule="evenodd">
        <g id="neuton-page-1920" transform="translate(-60.000000, -60.000000)">
            <g id="logo" transform="translate(60.000000, 60.000000)">
                <polygon id="Fill-1" fill="#353E45" points="46.7011436 18.3543396 47.6392729 18.3543396 47.6392729 9.89433962 46.7011436 9.89433962"></polygon>
                <path d="M50.366692,18.3543396 L50.366692,12.2769811 L51.2806213,12.2769811 L51.2806213,12.6781132 C51.2806213,12.6781132 52.3034507,12.1554717 53.1682237,12.1554717 C54.8368914,12.1554717 55.2146387,12.9818868 55.2146387,15.1939623 L55.2146387,18.3543396 L54.3131876,18.3543396 L54.3131876,15.2064151 C54.3131876,13.589434 54.130553,12.9939623 53.0218891,12.9939623 C52.2183724,12.9939623 51.2806213,13.4437736 51.2806213,13.4437736 L51.2806213,18.3543396 L50.366692,18.3543396" id="Fill-2" fill="#353E45"></path>
                <path d="M58.9648873,13.1033962 L58.9648873,15.9354717 C58.9648873,17.2603774 59.0378655,17.625283 59.8417602,17.625283 C60.1828294,17.625283 60.925846,17.5645283 60.925846,17.5645283 L60.9746242,18.3543396 C60.9746242,18.3543396 60.1707294,18.4883019 59.744582,18.4883019 C58.4899617,18.4883019 58.0513361,18.0143396 58.0513361,16.2637736 L58.0513361,13.1033962 L57.1865631,13.1033962 L57.1865631,12.2769811 L58.0513361,12.2769811 L58.0513361,10.4169811 L58.9648873,10.4169811 L58.9648873,12.2769811 L60.8895459,12.2769811 L60.8895459,13.1033962 L58.9648873,13.1033962" id="Fill-3" fill="#353E45"></path>
                <path d="M66.6132313,14.9633962 C66.6132313,13.5045283 66.1379276,12.9698113 65.07842,12.9698113 C64.0310124,12.9698113 63.4464304,13.5411321 63.4464304,14.9633962 L66.6132313,14.9633962 Z M67.2828915,17.54 L67.3074697,18.2815094 C67.3074697,18.2815094 65.931093,18.4762264 64.9445636,18.4762264 C63.1174613,18.4762264 62.5207793,17.4184906 62.5207793,15.3520755 C62.5207793,13.0426415 63.5315087,12.1554717 65.07842,12.1554717 C66.6862095,12.1554717 67.5267825,13.0064151 67.5267825,14.9996226 L67.4780043,15.7045283 L63.4464304,15.7045283 C63.4585304,16.9811321 63.8483778,17.649434 65.05422,17.649434 C65.9677711,17.649434 67.2828915,17.54 67.2828915,17.54 Z" id="Fill-4" fill="#353E45"></path>
                <polygon id="Fill-5" fill="#353E45" points="69.7422197 18.3543396 70.6436708 18.3543396 70.6436708 9.62679245 69.7422197 9.62679245"></polygon>
                <polygon id="Fill-6" fill="#353E45" points="73.3226898 18.3543396 74.224141 18.3543396 74.224141 9.62679245 73.3226898 9.62679245"></polygon>
                <path d="M76.8664818,18.3543396 L77.767933,18.3543396 L77.767933,12.2769811 L76.8664818,12.2769811 L76.8664818,18.3543396 Z M76.8664818,10.9033962 L77.767933,10.9033962 L77.767933,9.84603774 L76.8664818,9.84603774 L76.8664818,10.9033962 Z" id="Fill-7" fill="#353E45"></path>
                <path d="M83.7234093,14.2339623 C83.7234093,13.1883019 83.3335619,12.945283 82.2982543,12.945283 C81.3968032,12.945283 80.9585558,13.2735849 80.9585558,14.2339623 C80.9585558,15.1090566 81.2629468,15.5101887 82.2740543,15.5101887 C83.2968837,15.5101887 83.7234093,15.1939623 83.7234093,14.2339623 Z M81.5431378,18.2328302 C81.043634,18.6098113 80.8609994,18.8286792 80.8609994,19.3026415 C80.8609994,20.1411321 81.2141686,20.445283 82.5905453,20.445283 C83.8209656,20.445283 84.3688695,20.1169811 84.3688695,19.314717 C84.3688695,18.3909434 83.9669221,18.2935849 82.8707363,18.2935849 C82.4321108,18.2935849 81.5431378,18.2328302 81.5431378,18.2328302 Z M79.9599264,19.3754717 C79.9599264,18.670566 80.2885174,18.3422642 80.9218776,17.8683019 C80.7029429,17.7226415 80.5932865,17.4064151 80.5932865,17.029434 C80.5932865,16.7984906 80.9948558,16.069434 80.9948558,16.069434 C80.4957302,15.8381132 80.0450046,15.3645283 80.0450046,14.2339623 C80.0450046,12.7388679 80.9585558,12.1554717 82.3103543,12.1554717 C82.9195145,12.1554717 83.5770747,12.3135849 83.5770747,12.3135849 L85.3553988,12.2769811 L85.3553988,13.054717 L84.2592131,13.054717 C84.4785258,13.2856604 84.6369604,13.589434 84.6369604,14.2339623 C84.6369604,15.8264151 83.8572657,16.2879245 82.2740543,16.2879245 C82.1643979,16.2879245 81.8112287,16.2637736 81.6769942,16.2396226 C81.6769942,16.2396226 81.4580595,16.7743396 81.4580595,16.9324528 C81.4580595,17.4184906 81.5673378,17.4913208 82.9316145,17.4913208 C84.6732605,17.4913208 85.2945206,17.8316981 85.2945206,19.2784906 C85.2945206,20.6883019 84.2955131,21.2596226 82.5784453,21.2596226 C80.6541647,21.2596226 79.9599264,20.8343396 79.9599264,19.3754717 Z" id="Fill-8" fill="#353E45"></path>
                <path d="M91.030306,14.9633962 C91.030306,13.5045283 90.5550023,12.9698113 89.4954947,12.9698113 C88.4480871,12.9698113 87.8635051,13.5411321 87.8635051,14.9633962 L91.030306,14.9633962 Z M91.6999663,17.54 L91.7241663,18.2815094 C91.7241663,18.2815094 90.3481677,18.4762264 89.3612602,18.4762264 C87.534536,18.4762264 86.9374758,17.4184906 86.9374758,15.3520755 C86.9374758,13.0426415 87.9485834,12.1554717 89.4954947,12.1554717 C91.1032842,12.1554717 91.9438572,13.0064151 91.9438572,14.9996226 L91.895079,15.7045283 L87.8635051,15.7045283 C87.8756052,16.9811321 88.2654525,17.649434 89.4712947,17.649434 C90.3848458,17.649434 91.6999663,17.54 91.6999663,17.54 Z" id="Fill-9" fill="#353E45"></path>
                <path d="M94.1959725,18.3543396 L94.1959725,12.2769811 L95.1095237,12.2769811 L95.1095237,12.6781132 C95.1095237,12.6781132 96.1323531,12.1554717 96.9971261,12.1554717 C98.6657938,12.1554717 99.0435412,12.9818868 99.0435412,15.1939623 L99.0435412,18.3543396 L98.14209,18.3543396 L98.14209,15.2064151 C98.14209,13.589434 97.9594554,12.9939623 96.8511697,12.9939623 C96.0472749,12.9939623 95.1095237,13.4437736 95.1095237,13.4437736 L95.1095237,18.3543396 L94.1959725,18.3543396" id="Fill-10" fill="#353E45"></path>
                <path d="M102.79379,13.1033962 L102.79379,15.9354717 C102.79379,17.2603774 102.866768,17.625283 103.670663,17.625283 C104.011732,17.625283 104.754748,17.5645283 104.754748,17.5645283 L104.803527,18.3543396 C104.803527,18.3543396 103.999632,18.4883019 103.573484,18.4883019 C102.318864,18.4883019 101.880239,18.0143396 101.880239,16.2637736 L101.880239,13.1033962 L101.015466,13.1033962 L101.015466,12.2769811 L101.880239,12.2769811 L101.880239,10.4169811 L102.79379,10.4169811 L102.79379,12.2769811 L104.718448,12.2769811 L104.718448,13.1033962 L102.79379,13.1033962" id="Fill-11" fill="#353E45"></path>
                <path d="M111.354929,15.3279245 L114.472951,15.3279245 L113.218709,10.7577358 L112.609549,10.7577358 L111.354929,15.3279245 Z M111.903211,9.89433962 L113.961726,9.89433962 L116.239175,18.3422642 L115.313524,18.3422642 L114.668064,16.2271698 L111.135994,16.2271698 L110.526834,18.3543396 L109.589083,18.3543396 L111.903211,9.89433962 Z" id="Fill-12" fill="#353E45"></path>
                <path d="M121.560535,14.2339623 C121.560535,13.1883019 121.171066,12.945283 120.135759,12.945283 C119.234307,12.945283 118.79606,13.2735849 118.79606,14.2339623 C118.79606,15.1090566 119.100451,15.5101887 120.11118,15.5101887 C121.134388,15.5101887 121.560535,15.1939623 121.560535,14.2339623 Z M119.380642,18.2328302 C118.881138,18.6098113 118.698504,18.8286792 118.698504,19.3026415 C118.698504,20.1411321 119.051673,20.445283 120.42805,20.445283 C121.658092,20.445283 122.206374,20.1169811 122.206374,19.314717 C122.206374,18.3909434 121.804426,18.2935849 120.708241,18.2935849 C120.269615,18.2935849 119.380642,18.2328302 119.380642,18.2328302 Z M117.797052,19.3754717 C117.797052,18.670566 118.126022,18.3422642 118.759382,17.8683019 C118.540069,17.7226415 118.430413,17.4064151 118.430413,17.029434 C118.430413,16.7984906 118.83236,16.069434 118.83236,16.069434 C118.333234,15.8381132 117.882509,15.3645283 117.882509,14.2339623 C117.882509,12.7388679 118.79606,12.1554717 120.147859,12.1554717 C120.756641,12.1554717 121.414579,12.3135849 121.414579,12.3135849 L123.192903,12.2769811 L123.192903,13.054717 L122.096717,13.054717 C122.315652,13.2856604 122.474087,13.589434 122.474087,14.2339623 C122.474087,15.8264151 121.69477,16.2879245 120.11118,16.2879245 C120.001524,16.2879245 119.648733,16.2637736 119.514498,16.2396226 C119.514498,16.2396226 119.295186,16.7743396 119.295186,16.9324528 C119.295186,17.4184906 119.404842,17.4913208 120.768741,17.4913208 C122.510765,17.4913208 123.132025,17.8316981 123.132025,19.2784906 C123.132025,20.6883019 122.133395,21.2596226 120.41595,21.2596226 C118.491291,21.2596226 117.797052,20.8343396 117.797052,19.3754717 Z" id="Fill-13" fill="#353E45"></path>
                <path d="M128.867432,14.9633962 C128.867432,13.5045283 128.392885,12.9698113 127.332999,12.9698113 C126.285213,12.9698113 125.700631,13.5411321 125.700631,14.9633962 L128.867432,14.9633962 Z M129.53747,17.54 L129.561671,18.2815094 C129.561671,18.2815094 128.185672,18.4762264 127.198764,18.4762264 C125.371662,18.4762264 124.77498,17.4184906 124.77498,15.3520755 C124.77498,13.0426415 125.786088,12.1554717 127.332999,12.1554717 C128.940788,12.1554717 129.780983,13.0064151 129.780983,14.9996226 L129.732583,15.7045283 L125.700631,15.7045283 C125.713109,16.9811321 126.102957,17.649434 127.308421,17.649434 C128.221972,17.649434 129.53747,17.54 129.53747,17.54 Z" id="Fill-14" fill="#353E45"></path>
                <path d="M132.033099,18.3543396 L132.033099,12.2769811 L132.946272,12.2769811 L132.946272,12.6781132 C132.946272,12.6781132 133.969479,12.1554717 134.834252,12.1554717 C136.50292,12.1554717 136.880289,12.9818868 136.880289,15.1939623 L136.880289,18.3543396 L135.979216,18.3543396 L135.979216,15.2064151 C135.979216,13.589434 135.796582,12.9939623 134.687918,12.9939623 C133.884023,12.9939623 132.946272,13.4437736 132.946272,13.4437736 L132.946272,18.3543396 L132.033099,18.3543396" id="Fill-15" fill="#353E45"></path>
                <path d="M140.630538,13.1033962 L140.630538,15.9354717 C140.630538,17.2603774 140.703516,17.625283 141.507411,17.625283 C141.848858,17.625283 142.591496,17.5645283 142.591496,17.5645283 L142.640275,18.3543396 C142.640275,18.3543396 141.83638,18.4883019 141.409854,18.4883019 C140.155612,18.4883019 139.716987,18.0143396 139.716987,16.2637736 L139.716987,13.1033962 L138.852592,13.1033962 L138.852592,12.2769811 L139.716987,12.2769811 L139.716987,10.4169811 L140.630538,10.4169811 L140.630538,12.2769811 L142.555196,12.2769811 L142.555196,13.1033962 L140.630538,13.1033962" id="Fill-16" fill="#353E45"></path>
                <polygon id="Fill-18" fill="#FFFFFE" points="0.0226875288 59.9886792 35.4390543 59.9886792 35.4390543 0.34754717 0.0226875288 0.34754717"></polygon>
                <path d="M35.4382981,59.9898113 C35.4382981,59.9898113 28.8059771,60 28.2304702,60 C27.1883563,60 26.8185496,59.9124528 26.4256773,58.9928302 C24.8311221,55.2656604 25.1910976,54.1471698 26.9641279,52.2532075 C28.4550767,50.6633962 28.3045828,49.3833962 27.0775656,47.0592453 C27.0775656,47.0592453 25.8429859,44.6788679 25.2130288,43.3890566 C24.6008437,42.1249057 27.8375978,41.4350943 26.64499,39.7679245 C25.8860922,38.7116981 23.1518669,34.8173585 20.8218576,31.5049057 C18.5807079,28.3150943 15.8370295,25.9162264 12.7099317,26.1067925 C7.56818147,26.4143396 2.44987498,31.5501887 5.02869075,39.9520755 C6.41868001,44.4807547 9.55560899,54.9977358 10.149266,56.994717 C10.7444355,58.9966038 10.5841103,59.9766038 8.65113284,59.9766038 C7.75421921,59.9766038 0.000378125479,59.9898113 0.000378125479,59.9898113 L0.000378125479,0.346415094 L35.4382981,0.346415094 L35.4382981,59.9898113 Z M16.8863277,31.3486792 C16.2321706,31.3486792 15.7039293,31.88 15.7039293,32.54 C15.7039293,33.2003774 16.2321706,33.7339623 16.8863277,33.7339623 C17.5408629,33.7339623 18.0706167,33.2003774 18.0706167,32.54 C18.0706167,31.88 17.5408629,31.3486792 16.8863277,31.3486792 Z" id="Fill-19" fill="#EC006D"></path>
                <path d="M10.3564788,10.4607547 C9.95226262,11.194717 8.61899218,12.7354717 6.36687682,11.9116981 C5.51685074,11.5954717 4.85739991,10.8283019 4.6123746,9.87056604 C4.2784898,8.56943396 4.65056527,7.21698113 5.6794447,6.54943396 C6.06626707,6.29584906 7.25887483,6.07698113 7.6101534,6.81132075 C7.77879736,6.17169811 8.06087897,5.50415094 8.57097024,4.84641509 L9.91407194,4.93584906 C9.91407194,4.93584906 8.70898604,5.74867925 7.86122872,7.96188679 C8.40988879,7.15283019 9.19449916,6.90339623 9.71933732,7.08037736 C11.1879767,7.57849057 10.9108107,9.44754717 10.3564788,10.4607547 M19.7895751,7.08037736 C19.2658713,6.90339623 18.4820172,7.15283019 17.9326009,7.96188679 C18.7803582,5.74867925 19.9827972,4.93584906 19.9827972,4.93584906 L18.6400736,4.84641509 C18.1299824,5.50415094 17.8479008,6.17169811 17.6822818,6.81132075 C17.3313813,6.07698113 16.1376392,6.29584906 15.7508168,6.54943396 C14.7215593,7.21698113 14.3483494,8.56943396 14.6848811,9.87056604 C14.9276377,10.8283019 15.5878448,11.5954717 16.4378708,11.9116981 C18.6892299,12.7354717 20.0247691,11.194717 20.4278509,10.4607547 C20.9833172,9.44754717 21.2593488,7.57849057 19.7895751,7.08037736 M29.8605691,7.08037736 C29.3372434,6.90339623 28.5511206,7.15283019 28.003973,7.96188679 C28.850596,5.74867925 30.0553037,4.93584906 30.0553037,4.93584906 L28.712202,4.84641509 C28.2024889,5.50415094 27.9200291,6.17169811 27.7536539,6.81132075 C27.4027535,6.07698113 26.2086332,6.29584906 25.8206765,6.54943396 C24.7917971,7.21698113 24.4197216,8.56943396 24.7536064,9.87056604 C24.9990098,10.8283019 25.6580825,11.5954717 26.509243,11.9116981 C28.7606021,12.7354717 30.0961413,11.194717 30.4977105,10.4607547 C31.0546894,9.44754717 31.330721,7.57849057 29.8605691,7.08037736 M9.71933732,16.7245283 C9.19449916,16.5437736 8.40988879,16.7958491 7.86122872,17.6033962 C8.70898604,15.3913208 9.91407194,14.5788679 9.91407194,14.5788679 L8.57097024,14.4890566 C8.06087897,15.145283 7.77879736,15.8192453 7.6101534,16.4524528 C7.25887483,15.7233962 6.06626707,15.9396226 5.6794447,16.1943396 C4.65056527,16.8584906 4.2784898,18.2120755 4.6123746,19.5143396 C4.85739991,20.4720755 5.51685074,21.2418868 6.36687682,21.5543396 C8.61899218,22.3792453 9.95226262,20.8362264 10.3564788,20.1045283 C10.9108107,19.0913208 11.1879767,17.22 9.71933732,16.7245283 M19.7895751,16.7245283 C19.2658713,16.5437736 18.4820172,16.7958491 17.9326009,17.6033962 C18.7803582,15.3913208 19.9827972,14.5788679 19.9827972,14.5788679 L18.6400736,14.4890566 C18.1299824,15.145283 17.8479008,15.8192453 17.6822818,16.4524528 C17.3313813,15.7233962 16.1376392,15.9396226 15.7508168,16.1943396 C14.7215593,16.8584906 14.3483494,18.2120755 14.6848811,19.5143396 C14.9276377,20.4720755 15.5878448,21.2418868 16.4378708,21.5543396 C18.6892299,22.3792453 20.0247691,20.8362264 20.4278509,20.1045283 C20.9833172,19.0913208 21.2593488,17.22 19.7895751,16.7245283 M29.8605691,16.7245283 C29.3372434,16.5437736 28.5511206,16.7958491 28.003973,17.6033962 C28.850596,15.3913208 30.0553037,14.5788679 30.0553037,14.5788679 L28.712202,14.4890566 C28.2024889,15.145283 27.9200291,15.8192453 27.7536539,16.4524528 C27.4027535,15.7233962 26.2086332,15.9396226 25.8206765,16.1943396 C24.7917971,16.8584906 24.4197216,18.2120755 24.7536064,19.5143396 C24.9990098,20.4720755 25.6580825,21.2418868 26.509243,21.5543396 C28.7606021,22.3792453 30.0961413,20.8362264 30.4977105,20.1045283 C31.0546894,19.0913208 31.330721,17.22 29.8605691,16.7245283" id="Fill-21" fill="#C9D200"></path>
                <path d="M75.5324551,30.7218868 C72.1686509,33.9769811 64.9317073,44.6245283 61.2616214,50.1181132 C60.5484768,51.1690566 59.8009227,51.6437736 59.0193373,51.6437736 C58.4415616,51.6437736 57.8301327,51.3384906 57.1846725,50.8637736 C56.4371184,50.2535849 54.6020755,50.0501887 54.6361068,48.0154717 C54.6701381,44.6924528 56.2333088,39.0973585 57.014516,35.7403774 C54.3982658,39.470566 47.500879,49.9483019 47.0251971,50.7962264 C46.7533249,51.270566 46.277643,51.4743396 45.7338986,51.4743396 C44.6127566,51.4743396 43.2874268,50.5588679 43.2874268,49.2022642 C43.2874268,48.8633962 43.3895206,48.4901887 43.559299,48.0833962 C43.8992338,47.4388679 56.1992775,29.4671698 56.7426438,28.6196226 C56.9804847,28.2807547 57.3204195,28.110566 57.7620701,28.110566 C58.2717832,28.110566 58.8832121,28.3483019 59.5290505,28.6196226 C60.4804142,29.0603774 61.3637153,28.8230189 62.315079,29.6026415 C62.7571077,30.0098113 63.3345053,30.3826415 63.3345053,30.9932075 C63.3345053,31.0950943 63.3345053,31.1966038 63.300474,31.3320755 C62.5532981,33.5701887 60.1404794,38.1139623 59.5290505,45.2011321 C61.6015562,42.3864151 71.319381,28.110566 71.7950629,27.3649057 C71.9988725,26.9920755 72.4405231,26.8562264 72.9842675,26.8562264 C74.1394409,26.8562264 76.3480718,27.8735849 76.3480718,29.2637736 C76.3480718,29.7045283 76.1102309,30.1792453 75.5324551,30.7218868" id="Fill-22" fill="#353E45"></path>
                <path d="M79.7443948,39.8433962 C78.0114458,39.8433962 74.6816728,43.7769811 73.7979936,45.065283 C76.1423715,45.1332075 79.9141732,40.9283019 79.9141732,40.0128302 C79.9141732,39.9113208 79.8461106,39.8433962 79.7443948,39.8433962 Z M82.9384208,46.9641509 C81.5790597,49.3716981 77.1617978,52.3898113 74.8174198,52.3898113 C73.6622465,52.3898113 72.0994539,51.7113208 70.9779337,50.4569811 C70.2303797,49.6090566 69.1432689,48.9649057 69.1432689,46.625283 C69.1432689,43.4037736 76.4146219,35.5709434 79.4725226,35.5030189 C80.4579176,35.5030189 80.6957586,35.7403774 81.6807754,37.1984906 C82.0887728,37.8430189 82.8363269,38.6566038 82.8363269,39.7758491 C82.8363269,44.0822642 76.312528,47.574717 72.5411045,47.574717 C72.5070732,47.574717 72.4730419,47.574717 72.4390106,47.574717 C72.2692322,48.049434 72.1671384,48.4901887 72.1671384,48.8633962 C72.1671384,49.7784906 72.7108828,50.389434 74.0698658,50.389434 C78.0114458,50.389434 81.0353152,46.4218868 82.0887728,45.7777358 C82.1228041,45.7437736 82.1908667,45.7437736 82.2245199,45.7437736 C82.5644547,45.7437736 83.0061052,46.150566 83.0061052,46.625283 C83.0061052,46.7267925 82.9720739,46.8286792 82.9384208,46.9641509 Z" id="Fill-23" fill="#353E45"></path>
                <path d="M101.99897,44.9298113 C100.775734,47.0320755 96.6307225,51.9486792 94.0144723,51.9826415 C91.6016536,52.0166038 91.0582873,49.8464151 91.0582873,48.049434 C91.0582873,47.9818868 91.0582873,47.9139623 91.0582873,47.8116981 C90.1409549,48.829434 88.0340397,51.5079245 86.5729629,51.5079245 C84.7723293,51.5418868 83.4469995,49.3041509 83.4469995,47.3373585 C83.4469995,46.9641509 83.4810308,46.625283 83.5831247,46.2860377 C84.1945536,44.0822642 88.3059119,39.1992453 90.2767019,36.7913208 C90.6166368,36.350566 90.9902247,36.1811321 91.3638127,36.1811321 C92.1794294,36.1811321 94.1502194,37.3003774 94.1502194,38.1479245 C94.1502194,38.4192453 94.0481255,38.690566 93.742222,38.9615094 C90.0048297,42.4883019 87.2868638,46.4218868 86.6750568,48.2867925 C86.5729629,48.5241509 86.5393097,48.7615094 86.5393097,48.9309434 C86.5393097,49.2022642 86.6410255,49.3377358 86.946929,49.3377358 C87.1507386,49.3377358 87.4566421,49.2362264 87.7621675,48.9309434 C90.7864151,46.0150943 97.310214,37.3003774 97.8876116,36.3166038 C97.9897055,36.1132075 98.2275464,36.0116981 98.4653873,36.0116981 C99.4507823,36.0116981 101.115669,37.2324528 101.115669,38.2833962 C101.115669,38.5207547 101.013575,38.7581132 100.775734,38.9954717 C99.5528762,40.1826415 94.1161881,47.1 94.1161881,49.1343396 C94.1161881,49.4735849 94.2859664,49.6769811 94.6259012,49.6769811 C96.2567564,49.7109434 100.470209,44.9973585 101.047606,44.3196226 C101.251416,44.0822642 101.489635,43.9803774 101.693445,43.9803774 C101.931285,43.9803774 102.135095,44.1498113 102.135095,44.4550943 C102.135095,44.590566 102.101064,44.7264151 101.99897,44.9298113" id="Fill-24" fill="#353E45"></path>
                <path d="M116.23426,37.7411321 C116.200229,37.7411321 116.200229,37.7411321 116.132544,37.7411321 C115.453053,37.5716981 114.603405,37.5037736 113.720104,37.5037736 C112.76874,37.5037736 111.715282,37.5716981 110.696234,37.6732075 C107.637955,41.7422642 104.138404,46.9981132 104.138404,49.2022642 C104.138404,49.8124528 104.444307,50.2196226 105.089768,50.2196226 C106.65256,50.2196226 110.084427,46.9641509 111.341694,45.6418868 C111.613566,45.370566 111.783345,45.234717 111.919092,45.234717 C112.08887,45.234717 112.156933,45.4045283 112.156933,45.6758491 C112.156933,46.2524528 111.817376,47.2015094 111.409757,47.6422642 C110.11808,49.0667925 107.264367,51.8811321 105.225893,51.8811321 C104.342214,51.8811321 103.424881,51.4743396 102.405455,50.4909434 C101.522154,49.6430189 101.21625,48.829434 101.21625,48.0154717 C101.21625,47.5407547 101.318344,47.0660377 101.454091,46.5913208 C102.201645,44.3871698 104.070341,41.1996226 106.075163,38.1818868 C105.769259,38.1818868 105.531418,38.2158491 105.293577,38.2158491 C105.225893,38.2158491 105.15783,38.1818868 105.123799,38.1818868 C104.240498,38.1818868 103.356819,37.0630189 103.356819,36.3845283 C103.356819,36.1132075 103.526597,35.9098113 103.900563,35.9098113 C105.055736,35.9098113 106.21091,35.9777358 107.366461,35.9777358 C107.400492,35.9777358 107.468177,35.9777358 107.535861,35.9777358 C109.574714,32.96 111.477441,30.3826415 111.953123,29.5350943 C112.08887,29.2977358 112.326711,29.1958491 112.564552,29.1958491 C113.278453,29.1958491 115.622831,30.6883019 115.622831,31.4679245 C115.622831,31.7392453 115.453053,32.0441509 115.079465,32.3833962 C114.637436,32.7566038 113.482263,34.1128302 112.055217,35.9437736 C113.991976,35.9098113 115.554768,35.8422642 115.826641,35.8422642 C116.404416,35.8083019 116.641879,36.6218868 116.641879,37.0969811 C116.641879,37.4358491 116.506132,37.7411321 116.23426,37.7411321" id="Fill-25" fill="#353E45"></path>
                <path d="M123.402763,39.2671698 C121.194132,39.2671698 115.417887,45.7777358 115.417887,48.4562264 C115.417887,49.1343396 115.825506,49.5750943 116.743217,49.5750943 C118.408103,49.5750943 124.048223,42.2849057 124.048223,39.9792453 C124.048223,39.5384906 123.844413,39.2671698 123.402763,39.2671698 Z M126.087075,40.7588679 C125.951328,44.4890566 120.548672,51.745283 117.184867,51.745283 C115.893569,51.745283 114.806458,50.8298113 114.195029,50.1520755 C113.753,49.6769811 112.325955,48.6260377 112.325955,46.930566 C112.325955,42.3188679 118.271978,36.7573585 120.480609,35.8762264 C120.786513,35.7403774 121.058385,35.7064151 121.296226,35.7064151 C122.417368,35.7064151 123.232984,36.6218868 123.606572,36.9611321 C124.625999,37.8766038 126.087075,37.9445283 126.087075,40.4875472 C126.087075,40.589434 126.087075,40.6569811 126.087075,40.7588679 Z" id="Fill-26" fill="#353E45"></path>
                <path d="M143.924767,45.54 C142.735562,48.1173585 139.745724,51.3045283 136.721476,51.3045283 C135.226368,51.3384906 134.41113,50.0841509 134.41113,48.2867925 C134.41113,46.8966038 135.872207,44.0143396 137.197158,42.3864151 C134.071195,44.4890566 128.838316,51.7792453 128.125172,51.7792453 C127.038061,51.7792453 125.542575,50.6943396 125.542575,49.7109434 C125.542575,49.6090566 125.576606,49.4735849 125.610637,49.4056604 C126.120351,48.0154717 131.862564,37.9784906 132.270183,37.3343396 C132.610118,36.7913208 132.949675,36.6218868 133.289988,36.6218868 C133.935448,36.6218868 135.973922,37.8766038 135.973922,38.5207547 C135.973922,38.6566038 135.940269,38.8260377 135.838175,38.9954717 C135.532272,39.5045283 132.066374,45.065283 130.673359,47.1 C133.017737,44.5230189 139.20198,37.7750943 139.847818,37.0290566 C140.119312,36.7573585 140.357153,36.6558491 140.629025,36.6558491 C141.308517,36.6558491 143.346991,38.2158491 143.346991,38.9275472 C143.346991,39.165283 143.211244,39.4366038 142.939372,39.7758491 C139.473474,44.0822642 137.639187,47.2015094 137.639187,48.4901887 C137.639187,48.9309434 137.944712,49.3377358 138.386363,49.3041509 C139.609599,49.3041509 142.667878,45.9471698 143.381022,44.9637736 C143.483116,44.8279245 143.584832,44.7939623 143.720957,44.7939623 C143.924767,44.7939623 143.992451,44.8958491 143.992451,45.2011321 C143.992451,45.3026415 143.992451,45.4045283 143.924767,45.54" id="Fill-27" fill="#353E45"></path>
            </g>
        </g>
    </g>
</svg>